<svg id="visual" viewBox="0 0 1920 1080" width="1920" height="1080" xmlns="http://www.w3.org/2000/svg" xmlns:xlink="http://www.w3.org/1999/xlink" version="1.1"><rect x="0" y="0" width="1920" height="1080" fill="#001220"></rect><defs><linearGradient id="grad1_0" x1="43.8%" y1="100%" x2="100%" y2="0%"><stop offset="14.444444444444446%" stop-color="#001220" stop-opacity="1"></stop><stop offset="85.55555555555554%" stop-color="#001220" stop-opacity="1"></stop></linearGradient></defs><defs><linearGradient id="grad2_0" x1="0%" y1="100%" x2="56.3%" y2="0%"><stop offset="14.444444444444446%" stop-color="#001220" stop-opacity="1"></stop><stop offset="85.55555555555554%" stop-color="#001220" stop-opacity="1"></stop></linearGradient></defs><g transform="translate(1920, 1080)"><path d="M-810 0C-796 -86.5 -782 -173 -744.7 -242C-707.4 -311 -646.8 -362.4 -605.1 -439.7C-563.5 -516.9 -540.7 -619.8 -476.1 -655.3C-411.5 -690.8 -305.1 -658.8 -218.8 -673.3C-132.5 -687.9 -66.2 -748.9 0 -810L0 0Z" fill="#8b27d6"></path></g><g transform="translate(0, 0)"><path d="M810 0C802.2 84.1 794.5 168.2 770.4 250.3C746.2 332.5 705.7 412.7 639.9 464.9C574.1 517.2 483 541.5 407.3 560.6C331.7 579.8 271.4 593.7 206.1 634.4C140.8 675 70.4 742.5 0 810L0 0Z" fill="#8b27d6"></path></g></svg>